<?xml version="1.0" encoding="utf-8"?>
<svg xmlns="http://www.w3.org/2000/svg" viewBox="0 0 500 500">
  <g transform="matrix(1.223818, 0, 0, 1.223818, -48.104408, -73.660156)" style="">
    <path opacity="1.000000" stroke="none" d="M 201.947 425.082 C 198.039 423.957 194.157 423.654 190.374 422.831 C 180.075 420.591 170.116 417.302 160.34 413.414 C 159.753 413.18 158.997 413.142 158.713 412.393 C 159.025 411.81 159.608 411.831 160.115 411.767 C 171.679 410.33 183.114 408.211 194.388 405.25 C 195.276 405.017 196.121 405.106 196.96 405.332 C 207.844 408.266 218.914 410.164 230.159 410.777 C 237.839 411.196 245.528 410.962 253.213 410.207 C 262.433 409.301 271.501 407.746 280.394 405.151 C 301.839 398.893 321.101 388.534 338.317 374.333 C 360.03 356.425 375.875 334.328 385.65 307.913 C 390.405 295.063 393.593 281.84 395.024 268.204 C 395.282 265.749 395.531 263.293 395.755 260.834 C 395.811 260.217 395.92 259.637 396.295 259.14 C 399.612 254.751 402.502 250.087 405.23 245.317 C 405.323 245.156 405.514 245.052 405.662 244.918 C 406.419 245.096 406.313 245.712 406.307 246.2 C 406.002 269.034 401.891 291.145 393.54 312.417 C 384.849 334.554 372.231 354.182 355.858 371.456 C 339.715 388.487 321.05 401.932 299.729 411.676 C 286.955 417.514 273.637 421.7 259.818 424.255 C 258.508 424.498 257.137 424.385 255.747 424.996 C 237.793 425.082 219.964 425.082 201.947 425.082 Z" style="stroke-width: 0.402; fill: rgb(44, 4, 81);"/>
    <path opacity="1.000000" stroke="none" d="M 384.417 264.443 C 376.552 275.562 367.992 285.93 358.994 295.955 C 350.803 305.082 342.154 313.76 333.102 322.014 C 320.675 333.347 307.501 343.761 293.63 353.298 C 282.194 361.161 270.364 368.358 258.116 374.871 C 237.82 385.663 216.598 394.098 194.321 399.823 C 180.216 403.448 165.912 405.544 151.325 406.022 C 136.161 406.52 121.247 405.138 106.658 401.029 C 94.713 397.663 83.783 392.211 74.783 383.47 C 65.565 374.516 60.424 363.439 58.563 350.805 C 57.417 343.01 57.63 335.196 58.599 327.394 C 58.663 326.881 58.571 326.294 59.29 325.91 C 60.171 326.691 60.657 327.802 61.272 328.807 C 72.117 346.517 87.103 359.225 106.78 366.114 C 118.497 370.216 130.667 371.292 143.004 370.736 C 158.378 370.044 173.178 366.551 187.618 361.392 C 216.632 351.024 242.482 335.177 266.417 315.976 C 278.557 306.237 289.953 295.69 300.648 284.415 C 315.923 268.31 329.891 251.116 342.393 232.757 C 352.277 218.242 361.51 203.337 369.31 187.58 C 370.572 185.03 370.386 184.732 367.54 184.384 C 356.527 183.036 345.514 181.68 334.503 180.309 C 333.722 180.212 332.902 180.175 332.208 179.706 C 332.879 178.361 427.145 112.625 430.82 111.049 C 435.483 153.246 439.579 195.351 443.675 237.509 C 441.075 236.189 439.557 233.961 437.741 232.066 C 431.071 225.106 424.461 218.088 417.804 211.115 C 416.268 209.506 415.836 209.577 414.864 211.687 C 408.549 225.388 401.401 238.636 393.251 251.332 C 390.431 255.725 387.427 260.001 384.417 264.443 Z" style="stroke-width: 0.402; fill: rgb(9, 9, 63);"/>
    <path opacity="1.000000" stroke="none" d="M 49.631 288.123 C 46.198 276.226 44.245 264.266 43.614 252.047 C 42.52 230.855 45.033 210.143 51.303 189.882 C 58.097 167.919 68.95 148.153 83.453 130.34 C 93.841 117.585 105.78 106.515 119.195 97.032 C 141.116 81.54 165.276 71.278 191.686 66.446 C 200.16 64.894 208.696 63.813 217.346 63.508 C 225.056 63.23 232.73 63.303 240.4 63.99 C 256.002 65.393 271.172 68.677 285.737 74.546 C 285.909 74.614 286.039 74.787 286.23 74.948 C 286.177 75.133 286.183 75.378 286.066 75.478 C 282.013 78.907 277.59 81.789 272.941 84.338 C 272.353 84.663 271.814 84.583 271.206 84.45 C 264.611 83.011 257.959 81.801 251.238 81.295 C 243.838 80.736 236.415 80.507 228.972 80.869 C 221.212 81.251 213.524 82.075 205.894 83.494 C 191.413 86.191 177.467 90.568 164.191 96.972 C 151.465 103.106 139.659 110.707 128.865 119.824 C 118.795 128.33 109.995 138.017 102.37 148.779 C 92.188 163.15 84.325 178.675 79.06 195.486 C 75.627 206.43 73.416 217.62 72.371 229.052 C 71.691 236.464 71.314 243.893 71.703 251.311 C 72.564 267.757 75.562 283.8 81.278 299.304 C 87.533 316.253 96.388 331.664 108.248 345.301 C 113.216 351.014 118.587 356.344 124.411 361.202 C 124.828 361.55 125.522 361.797 125.346 362.749 C 121.561 362.468 117.867 361.651 114.217 360.689 C 97.41 356.259 83.252 347.526 72.037 334.221 C 67.177 328.461 63.527 321.871 60.159 315.166 C 55.825 306.543 52.196 297.621 49.631 288.123 Z" style="stroke-width: 0.402; fill: rgb(44, 4, 81);"/>
    <path opacity="1.000000" stroke="none" d="M 217.984 195.224 C 231.316 193.309 244.041 194.609 256.504 200.252 C 255.351 201.187 254.313 200.902 253.383 200.879 C 242.361 200.62 231.473 201.712 220.721 204.111 C 206.792 207.219 193.81 212.558 181.991 220.644 C 178.666 222.919 176.134 225.915 173.716 229.048 C 162.162 244.02 153.606 260.498 149.127 278.931 C 145.693 293.064 144.879 307.312 147.782 321.698 C 150.517 335.247 156.338 347.26 165.065 357.919 C 165.355 358.273 165.74 358.593 165.579 359.342 C 162.759 360.238 159.735 360.662 156.751 361.222 C 151.678 362.174 146.548 362.624 141.391 362.814 C 140.442 362.849 139.731 362.568 139.042 361.944 C 127.876 351.828 118.614 340.235 111.404 326.969 C 104.211 313.734 99.358 299.699 96.596 284.937 C 95.244 277.712 94.546 270.407 94.22 263.038 C 93.734 252.08 94.709 241.267 96.716 230.543 C 99.475 215.794 104.145 201.665 111.095 188.321 C 117.324 176.361 125.179 165.583 134.356 155.721 C 148.287 140.75 164.717 129.328 183.331 120.974 C 183.85 120.741 184.359 120.274 185.01 120.745 C 185.086 121.645 184.272 121.774 183.771 122.117 C 172.856 129.594 163.195 138.392 155.383 149.124 C 150.159 156.299 145.758 163.957 142.56 172.243 C 140.729 176.987 137.684 181.011 135.249 185.389 C 127.993 198.43 122.863 212.219 119.942 226.841 C 117.902 237.055 117.319 247.373 117.64 257.772 C 117.969 268.381 119.589 278.785 122.288 289.031 C 123.243 292.657 124.523 296.181 125.933 299.655 C 126.174 300.249 126.258 300.977 127.1 301.354 C 128.062 300.375 127.851 299.01 127.972 297.87 C 129.625 282.301 133.793 267.395 139.964 253.063 C 146.951 236.836 156.659 222.402 169.303 210.001 C 172.554 206.813 175.798 203.614 179.131 200.512 C 181.343 198.452 182.295 195.703 183.367 193.068 C 186.57 185.186 188.667 176.935 191.192 168.826 C 193.082 162.753 195.496 156.866 198.033 151.034 C 198.22 150.603 198.395 150.162 199.37 149.863 C 201.061 155.688 200.882 161.556 200.348 167.464 C 199.806 173.472 198.007 179.19 196.014 185.1 C 197.504 184.961 198.148 184.112 198.894 183.539 C 205.164 178.722 211.508 174.016 218.388 170.085 C 219.709 169.33 220.626 168.307 221.314 166.914 C 224.552 160.349 226.718 153.369 229.379 146.581 C 231.215 141.9 233.5 137.422 236.393 133.284 C 236.795 132.708 237.055 131.936 238.228 131.858 C 239.236 141.256 237.978 150.276 234.275 159.127 C 251.405 148.218 268.091 136.962 281.083 121.05 C 278.002 130.404 272.635 138.299 266.148 145.445 C 259.665 152.585 252.314 158.82 244.918 165.203 C 250.365 164.09 255.739 162.715 261.276 162.554 C 266.86 162.392 272.462 162.178 277.996 163.413 C 277.886 164.532 277.041 164.674 276.446 165.009 C 269.16 169.113 261.235 171.242 253.021 172.339 C 245.037 173.406 237.223 175.113 229.647 177.866 C 226.086 179.159 223.502 181.879 220.616 184.129 C 213.967 189.311 207.419 194.621 201.164 200.369 C 206.596 198.23 212.025 196.148 217.984 195.224 Z" style="stroke-width: 0.402; fill: rgb(44, 4, 81);"/>
    <path opacity="1.000000" stroke="none" d="M 298.702 109.799 C 298.604 105.964 298.681 102.306 297.973 98.359 C 296.822 99.203 295.927 99.858 295.034 100.513 C 284.519 108.243 272.686 113.38 260.628 118.104 C 250.458 122.087 239.852 124.752 229.613 128.515 C 218.73 132.515 208.091 136.978 198.22 143.213 C 180.531 154.385 168.17 169.565 162.07 189.706 C 160.411 195.184 159.494 200.763 159.224 206.455 C 159.091 209.271 158.446 211.634 156.245 213.755 C 152.83 217.046 149.984 220.894 147.12 224.692 C 146.657 225.307 146.363 226.133 145.346 226.408 C 144.235 225.117 144.416 223.425 144.196 221.924 C 142.662 211.429 143.249 201.017 145.196 190.595 C 148.046 175.336 154.148 161.613 163.959 149.603 C 174.221 137.039 187.074 127.765 201.566 120.684 C 214.114 114.55 227.36 110.289 240.656 106.137 C 255.125 101.619 269.28 96.337 282.207 88.197 C 291.758 82.183 300.131 74.875 307.223 66.096 C 307.552 65.69 307.801 65.176 308.628 65.099 C 309.826 67.29 310.089 69.819 310.654 72.234 C 312.607 80.575 314.1 88.997 315.126 97.502 C 316.492 108.822 316.934 120.202 316.296 131.559 C 315.517 145.402 313.386 159.057 308.877 172.266 C 303.046 189.351 294.209 204.556 280.86 216.854 C 269.067 227.719 255.36 235.16 239.657 238.75 C 238.114 239.103 236.433 240.297 235.051 239.53 C 233.617 238.736 234.013 236.633 233.551 235.124 C 232.827 232.759 232.298 230.335 231.593 227.963 C 231.19 226.603 231.486 225.899 232.924 225.44 C 240.87 222.908 248.445 219.559 255.374 214.86 C 269.964 204.964 280.451 191.709 287.596 175.672 C 292.981 163.586 296.199 150.925 297.601 137.82 C 298.59 128.581 299.329 119.306 298.702 109.799 Z" style="stroke-width: 0.402; fill: rgb(44, 4, 81);"/>
    <path opacity="1.000000" stroke="none" d="M 228.831 300.554 C 226.341 311.439 223.882 322.157 221.286 333.468 C 219.974 331.239 219.85 329.298 219.433 327.501 C 216.927 316.69 214.53 305.854 212.099 295.026 C 211.568 292.664 211.068 292.438 209.027 293.863 C 203.317 297.848 197.636 301.874 191.937 305.876 C 191.465 306.208 191.067 306.735 189.927 306.548 C 194.229 298.803 199.244 291.687 203.875 283.697 C 190.556 280.656 177.563 277.689 164.531 274.714 C 164.851 273.609 165.604 273.762 166.114 273.642 C 177.311 271.011 188.516 268.415 199.719 265.812 C 200.109 265.722 200.505 265.654 200.892 265.55 C 203.14 264.943 203.269 264.696 202.047 262.738 C 198.148 256.489 194.214 250.262 190.306 244.018 C 189.931 243.419 189.316 242.906 189.508 241.503 C 196.834 246.334 203.949 251.025 211.551 256.037 C 214.631 242.242 217.603 228.927 220.576 215.611 C 220.848 215.582 221.12 215.554 221.393 215.525 C 224.482 228.882 227.572 242.239 230.77 256.064 C 238.228 251.128 245.275 246.464 252.322 241.801 C 252.523 241.962 252.724 242.122 252.924 242.283 C 248.322 249.69 243.72 257.097 238.92 264.822 C 251.947 267.918 264.76 270.964 277.573 274.01 C 277.585 274.25 277.596 274.49 277.607 274.73 C 264.737 277.685 251.866 280.64 238.466 283.717 C 243.282 291.584 247.829 299.012 252.377 306.44 C 252.244 306.596 252.111 306.752 251.977 306.908 C 245.003 302.266 238.373 297.093 231.066 292.577 C 229.581 295.14 229.631 297.887 228.831 300.554 Z" style="stroke-width: 0.402; fill: rgb(44, 4, 81);"/>
    <path opacity="1.000000" stroke="none" d="M 379.306 291.141 C 381.21 286.089 383.067 281.184 384.985 276.119 C 386.906 281.102 376.917 313.005 369.023 327.376 C 360.248 343.348 348.741 357.138 334.9 368.907 C 312.07 388.32 285.709 400.039 255.969 403.825 C 242.743 405.509 229.499 405.227 216.324 402.542 C 216.54 401.49 217.169 401.474 217.625 401.319 C 229.561 397.243 241.118 392.265 252.307 386.469 C 255.184 384.979 258.106 384.259 261.263 383.991 C 280.245 382.38 297.899 376.532 314.481 367.262 C 325.539 361.08 335.602 353.556 344.555 344.616 C 358.651 330.541 369.586 314.297 377.31 295.916 C 377.958 294.373 378.609 292.83 379.306 291.141 Z" style="stroke-width: 0.402; fill: rgb(44, 4, 81);"/>
    <path opacity="1.000000" stroke="none" d="M 324.5 339.996 C 332.761 332.948 340.766 325.832 348.226 318.128 C 355.616 310.495 362.749 302.631 369.403 293.944 C 370.018 299.709 355.255 324.299 345.081 335.176 C 327.815 353.633 307.181 366.26 282.297 371.664 C 296.752 361.679 311.031 351.494 324.5 339.996 Z" style="stroke-width: 0.402; fill: rgb(44, 4, 81);"/>
    <path opacity="1.000000" stroke="none" d="M 180.158 355.305 C 179.679 355.434 179.36 355.535 179.039 355.629 C 173.549 357.228 173.538 357.236 170.05 352.789 C 161.032 341.292 155.721 328.29 154.159 313.749 C 153.73 309.759 153.353 305.774 153.464 301.758 C 153.479 301.187 153.251 300.554 154.177 299.639 C 159.969 321.672 172.102 338.923 191.948 350.933 C 187.829 353.092 184.031 354.074 180.158 355.305 Z" style="stroke-width: 0.402; fill: rgb(44, 4, 81);"/>
    <path opacity="1.000000" stroke="none" d="M 333.488 99.995 C 348.072 110.948 360.379 123.867 370.445 138.913 C 372.157 141.473 372.159 141.473 369.749 143.237 C 369.317 143.553 368.85 143.829 368.452 144.183 C 367.387 145.13 366.655 144.809 365.812 143.775 C 360.1 136.76 353.882 130.219 347.157 124.163 C 340.932 118.558 334.38 113.368 327.411 108.726 C 325.481 107.439 324.115 106.153 324.019 103.556 C 323.894 100.184 323.242 96.831 322.752 92.948 C 326.898 94.934 330.077 97.515 333.488 99.995 Z" style="stroke-width: 0.402; fill: rgb(44, 4, 81);"/>
  </g>
</svg>